<svg width="30" height="30" viewBox="0 0 30 30" fill="none" xmlns="http://www.w3.org/2000/svg">
<path d="M26.6765 1.87421H3.32451C2.94025 1.87436 2.57178 2.02708 2.30007 2.29879C2.02836 2.5705 1.87564 2.93897 1.87549 3.32323V26.6752C1.87564 27.0594 2.02836 27.4279 2.30007 27.6996C2.57178 27.9713 2.94025 28.124 3.32451 28.1242H15.0005V17.8117H11.8628V14.0617H15.0005V11.0734C15.0005 7.68319 17.3519 5.83749 20.3806 5.83749C21.8296 5.83749 23.3882 5.94647 23.7503 5.99452V9.53534H21.3374C19.6897 9.53534 19.3757 10.3146 19.3757 11.4631V14.0617H23.3015L22.7888 17.8117H19.3757V28.1242H26.6765C27.0607 28.124 27.4292 27.9713 27.7009 27.6996C27.9726 27.4279 28.1253 27.0594 28.1255 26.6752V3.32323C28.1253 2.93897 27.9726 2.5705 27.7009 2.29879C27.4292 2.02708 27.0607 1.87436 26.6765 1.87421Z" fill="black"/>
</svg>
