<svg width="30" height="30" viewBox="0 0 30 30" fill="none" xmlns="http://www.w3.org/2000/svg">
<path d="M26.0256 1.87582H4.11797C2.9209 1.87582 1.875 2.73715 1.875 3.92016V25.8764C1.875 27.0659 2.9209 28.1258 4.11797 28.1258H26.0191C27.2226 28.1258 28.125 27.0588 28.125 25.8764V3.92016C28.132 2.73715 27.2226 1.87582 26.0256 1.87582ZM10.0119 23.7565H6.25137V12.0641H10.0119V23.7565ZM8.26172 10.2864H8.23476C7.03125 10.2864 6.25195 9.39047 6.25195 8.26899C6.25195 7.12699 7.05176 6.25219 8.28222 6.25219C9.51269 6.25219 10.2656 7.12055 10.2926 8.26899C10.292 9.39047 9.51269 10.2864 8.26172 10.2864ZM23.7557 23.7565H19.9951V17.3633C19.9951 15.8317 19.4478 14.7852 18.0873 14.7852C17.0478 14.7852 16.4326 15.4883 16.159 16.1733C16.0564 16.4194 16.0289 16.7545 16.0289 17.0967V23.7565H12.2684V12.0641H16.0289V13.6912C16.5762 12.912 17.431 11.7905 19.4203 11.7905C21.8889 11.7905 23.7562 13.4176 23.7562 16.9256L23.7557 23.7565Z" fill="#e9f2fd"/>
</svg>
