<svg width="697" height="160" viewBox="0 0 697 160" fill="none" xmlns="http://www.w3.org/2000/svg">
<circle cx="70" cy="70" r="69.25" stroke="#1A1A1A" stroke-width="1.5"/>
<path d="M89.08 79.88C89.08 82.92 88.4933 85.4267 87.32 87.4C86.2 89.32 84.7333 90.84 82.92 91.96C81.16 93.08 79.1867 93.88 77 94.36C74.8667 94.7867 72.8133 95 70.84 95H53.48V38.36H68.92C71.0533 38.36 73.16 38.5733 75.24 39C77.3733 39.4267 79.2667 40.1467 80.92 41.16C82.5733 42.1733 83.9067 43.5333 84.92 45.24C85.9333 46.9467 86.44 49.1067 86.44 51.72C86.44 53.7467 86.12 55.5067 85.48 57C84.84 58.4933 83.96 59.7733 82.84 60.84C81.7733 61.9067 80.5467 62.7867 79.16 63.48C77.7733 64.12 76.36 64.6 74.92 64.92V65.08C76.36 65.24 77.9067 65.64 79.56 66.28C81.2133 66.8667 82.7333 67.7467 84.12 68.92C85.56 70.0933 86.7333 71.5867 87.64 73.4C88.6 75.2133 89.08 77.3733 89.08 79.88ZM84.68 51.96C84.68 49.6667 84.2267 47.7467 83.32 46.2C82.4133 44.6533 81.2133 43.4267 79.72 42.52C78.2267 41.6133 76.4933 40.9733 74.52 40.6C72.6 40.1733 70.5733 39.96 68.44 39.96H55.24V64.36H68.84C70.76 64.36 72.6533 64.12 74.52 63.64C76.44 63.16 78.1467 62.44 79.64 61.48C81.1333 60.4667 82.3333 59.1867 83.24 57.64C84.2 56.04 84.68 54.1467 84.68 51.96ZM87.32 80.12C87.32 77.56 86.7867 75.3733 85.72 73.56C84.7067 71.7467 83.4 70.28 81.8 69.16C80.2 68.04 78.44 67.24 76.52 66.76C74.6 66.2267 72.7333 65.96 70.92 65.96H55.24V93.4H70.04C72.4933 93.4 74.7867 93.16 76.92 92.68C79.0533 92.1467 80.8667 91.3467 82.36 90.28C83.9067 89.2133 85.1067 87.8533 85.96 86.2C86.8667 84.4933 87.32 82.4667 87.32 80.12Z" fill="#1A1A1A"/>
<line x1="0.75" y1="159.25" x2="139.25" y2="159.25" stroke="#1A1A1A" stroke-width="1.5" stroke-linecap="round"/>
<path d="M204.859 61.168H216.988C222.34 61.168 226.363 61.9688 229.059 63.5703C231.754 65.1719 233.102 67.8965 233.102 71.7441C233.102 73.4043 232.779 74.8984 232.135 76.2266C231.51 77.5352 230.592 78.6191 229.381 79.4785C228.17 80.3379 226.676 80.9336 224.898 81.2656V81.5586C226.773 81.8516 228.434 82.3887 229.879 83.1699C231.324 83.9512 232.457 85.0449 233.277 86.4512C234.098 87.8574 234.508 89.6445 234.508 91.8125C234.508 94.4492 233.893 96.6758 232.662 98.4922C231.451 100.309 229.732 101.686 227.506 102.623C225.279 103.541 222.643 104 219.596 104H204.859V61.168ZM209.84 79.5371H218.043C221.773 79.5371 224.352 78.9219 225.777 77.6914C227.223 76.4609 227.945 74.6641 227.945 72.3008C227.945 69.8594 227.086 68.1016 225.367 67.0273C223.668 65.9531 220.953 65.416 217.223 65.416H209.84V79.5371ZM209.84 83.7266V99.752H218.746C222.555 99.752 225.25 99.0098 226.832 97.5254C228.414 96.0215 229.205 94 229.205 91.4609C229.205 89.8398 228.844 88.4531 228.121 87.3008C227.418 86.1484 226.266 85.2695 224.664 84.6641C223.082 84.0391 220.963 83.7266 218.307 83.7266H209.84ZM270.602 87.8867C270.602 90.5234 270.26 92.877 269.576 94.9473C268.893 97.0176 267.906 98.7656 266.617 100.191C265.328 101.617 263.766 102.711 261.93 103.473C260.113 104.215 258.053 104.586 255.748 104.586C253.6 104.586 251.627 104.215 249.83 103.473C248.053 102.711 246.51 101.617 245.201 100.191C243.912 98.7656 242.906 97.0176 242.184 94.9473C241.48 92.877 241.129 90.5234 241.129 87.8867C241.129 84.3711 241.725 81.3828 242.916 78.9219C244.107 76.4414 245.807 74.5566 248.014 73.2676C250.24 71.959 252.887 71.3047 255.953 71.3047C258.883 71.3047 261.441 71.959 263.629 73.2676C265.836 74.5762 267.545 76.4707 268.756 78.9512C269.986 81.4121 270.602 84.3906 270.602 87.8867ZM246.168 87.8867C246.168 90.4648 246.51 92.7012 247.193 94.5957C247.877 96.4902 248.932 97.9551 250.357 98.9902C251.783 100.025 253.619 100.543 255.865 100.543C258.092 100.543 259.918 100.025 261.344 98.9902C262.789 97.9551 263.854 96.4902 264.537 94.5957C265.221 92.7012 265.562 90.4648 265.562 87.8867C265.562 85.3281 265.221 83.1211 264.537 81.2656C263.854 79.3906 262.799 77.9453 261.373 76.9297C259.947 75.9141 258.102 75.4062 255.836 75.4062C252.496 75.4062 250.045 76.5098 248.482 78.7168C246.939 80.9238 246.168 83.9805 246.168 87.8867ZM305.523 71.8906V104H301.539L300.836 99.4883H300.572C299.908 100.602 299.049 101.539 297.994 102.301C296.939 103.062 295.748 103.629 294.42 104C293.111 104.391 291.715 104.586 290.23 104.586C287.691 104.586 285.562 104.176 283.844 103.355C282.125 102.535 280.826 101.266 279.947 99.5469C279.088 97.8281 278.658 95.6211 278.658 92.9258V71.8906H283.58V92.5742C283.58 95.25 284.186 97.252 285.396 98.5801C286.607 99.8887 288.453 100.543 290.934 100.543C293.316 100.543 295.211 100.094 296.617 99.1953C298.043 98.2969 299.068 96.9785 299.693 95.2402C300.318 93.4824 300.631 91.334 300.631 88.7949V71.8906H305.523ZM328.668 104.586C325.777 104.586 323.229 103.99 321.021 102.799C318.814 101.607 317.096 99.791 315.865 97.3496C314.635 94.9082 314.02 91.832 314.02 88.1211C314.02 84.2344 314.664 81.0605 315.953 78.5996C317.262 76.1191 319.059 74.2832 321.344 73.0918C323.629 71.9004 326.227 71.3047 329.137 71.3047C330.738 71.3047 332.281 71.4707 333.766 71.8027C335.27 72.1152 336.5 72.5156 337.457 73.0039L335.992 77.0762C335.016 76.6855 333.883 76.334 332.594 76.0215C331.324 75.709 330.133 75.5527 329.02 75.5527C326.793 75.5527 324.938 76.0312 323.453 76.9883C321.988 77.9453 320.885 79.3516 320.143 81.207C319.42 83.0625 319.059 85.3477 319.059 88.0625C319.059 90.6602 319.41 92.877 320.113 94.7129C320.836 96.5488 321.9 97.9551 323.307 98.9316C324.732 99.8887 326.51 100.367 328.639 100.367C330.338 100.367 331.871 100.191 333.238 99.8398C334.605 99.4688 335.846 99.0391 336.959 98.5508V102.887C335.885 103.434 334.684 103.854 333.355 104.146C332.047 104.439 330.484 104.586 328.668 104.586ZM356.939 71.3047C359.674 71.3047 362.018 71.9102 363.971 73.1211C365.924 74.332 367.418 76.0312 368.453 78.2188C369.488 80.3867 370.006 82.9258 370.006 85.8359V88.8535H347.828C347.887 92.623 348.824 95.4941 350.641 97.4668C352.457 99.4395 355.016 100.426 358.316 100.426C360.348 100.426 362.145 100.24 363.707 99.8691C365.27 99.498 366.891 98.9512 368.57 98.2285V102.506C366.949 103.229 365.338 103.756 363.736 104.088C362.154 104.42 360.279 104.586 358.111 104.586C355.025 104.586 352.33 103.961 350.025 102.711C347.74 101.441 345.963 99.5859 344.693 97.1445C343.424 94.7031 342.789 91.7148 342.789 88.1797C342.789 84.7227 343.365 81.7344 344.518 79.2148C345.689 76.6758 347.33 74.7227 349.439 73.3555C351.568 71.9883 354.068 71.3047 356.939 71.3047ZM356.881 75.2891C354.283 75.2891 352.213 76.1387 350.67 77.8379C349.127 79.5371 348.209 81.9102 347.916 84.957H364.908C364.889 83.043 364.586 81.3633 364 79.918C363.434 78.4531 362.564 77.3203 361.393 76.5195C360.221 75.6992 358.717 75.2891 356.881 75.2891ZM383.102 58.4141V82.0859C383.102 82.8672 383.072 83.8242 383.014 84.957C382.955 86.0703 382.906 87.0566 382.867 87.916H383.072C383.482 87.4082 384.078 86.6562 384.859 85.6602C385.66 84.6641 386.334 83.8633 386.881 83.2578L397.545 71.8906H403.258L390.338 85.6016L404.195 104H398.336L386.998 88.7949L383.102 92.3691V104H378.268V58.4141H383.102ZM409.059 100.953C409.059 99.5859 409.391 98.6191 410.055 98.0527C410.719 97.4668 411.529 97.1738 412.486 97.1738C413.482 97.1738 414.322 97.4668 415.006 98.0527C415.689 98.6191 416.031 99.5859 416.031 100.953C416.031 102.301 415.689 103.287 415.006 103.912C414.322 104.518 413.482 104.82 412.486 104.82C411.529 104.82 410.719 104.518 410.055 103.912C409.391 103.287 409.059 102.301 409.059 100.953ZM436.979 104.586C432.916 104.586 429.693 103.199 427.311 100.426C424.947 97.6523 423.766 93.5312 423.766 88.0625C423.766 82.5352 424.977 78.3652 427.398 75.5527C429.82 72.7207 433.043 71.3047 437.066 71.3047C438.766 71.3047 440.25 71.5293 441.52 71.9785C442.789 72.4277 443.883 73.0332 444.801 73.7949C445.719 74.5371 446.49 75.3867 447.115 76.3438H447.467C447.389 75.7383 447.311 74.9082 447.232 73.8535C447.154 72.7988 447.115 71.9395 447.115 71.2754V58.4141H451.979V104H448.053L447.32 99.4297H447.115C446.51 100.387 445.738 101.256 444.801 102.037C443.883 102.818 442.779 103.443 441.49 103.912C440.221 104.361 438.717 104.586 436.979 104.586ZM437.74 100.543C441.178 100.543 443.609 99.5664 445.035 97.6133C446.461 95.6602 447.174 92.7598 447.174 88.9121V88.0332C447.174 83.9512 446.49 80.8164 445.123 78.6289C443.775 76.4414 441.314 75.3477 437.74 75.3477C434.752 75.3477 432.516 76.5 431.031 78.8047C429.547 81.0898 428.805 84.2148 428.805 88.1797C428.805 92.125 429.537 95.1719 431.002 97.3203C432.486 99.4688 434.732 100.543 437.74 100.543ZM474.654 71.3047C477.389 71.3047 479.732 71.9102 481.686 73.1211C483.639 74.332 485.133 76.0312 486.168 78.2188C487.203 80.3867 487.721 82.9258 487.721 85.8359V88.8535H465.543C465.602 92.623 466.539 95.4941 468.355 97.4668C470.172 99.4395 472.73 100.426 476.031 100.426C478.062 100.426 479.859 100.24 481.422 99.8691C482.984 99.498 484.605 98.9512 486.285 98.2285V102.506C484.664 103.229 483.053 103.756 481.451 104.088C479.869 104.42 477.994 104.586 475.826 104.586C472.74 104.586 470.045 103.961 467.74 102.711C465.455 101.441 463.678 99.5859 462.408 97.1445C461.139 94.7031 460.504 91.7148 460.504 88.1797C460.504 84.7227 461.08 81.7344 462.232 79.2148C463.404 76.6758 465.045 74.7227 467.154 73.3555C469.283 71.9883 471.783 71.3047 474.654 71.3047ZM474.596 75.2891C471.998 75.2891 469.928 76.1387 468.385 77.8379C466.842 79.5371 465.924 81.9102 465.631 84.957H482.623C482.604 83.043 482.301 81.3633 481.715 79.918C481.148 78.4531 480.279 77.3203 479.107 76.5195C477.936 75.6992 476.432 75.2891 474.596 75.2891ZM503.043 104L490.855 71.8906H496.07L503.131 91.3145C503.619 92.6426 504.117 94.1074 504.625 95.709C505.133 97.3105 505.484 98.5996 505.68 99.5762H505.885C506.119 98.5996 506.51 97.3105 507.057 95.709C507.604 94.0879 508.102 92.623 508.551 91.3145L515.611 71.8906H520.826L508.609 104H503.043Z" fill="#1A1A1A"/>
</svg>
