<svg width="695" height="160" viewBox="0 0 695 160" fill="none" xmlns="http://www.w3.org/2000/svg">
<circle cx="70" cy="70" r="69" stroke="white" stroke-width="2"/>
<path d="M48.84 94V89.36H56.84V42.64H48.84V38H76.6C79.8 38 82.6533 38.5867 85.16 39.76C87.6667 40.9333 89.6133 42.5867 91 44.72C92.44 46.8 93.16 49.2267 93.16 52V52.64C93.16 55.2533 92.6533 57.4133 91.64 59.12C90.6267 60.8267 89.4 62.16 87.96 63.12C86.52 64.08 85.1067 64.7733 83.72 65.2V66.16C85.1067 66.48 86.52 67.1467 87.96 68.16C89.4533 69.12 90.68 70.4533 91.64 72.16C92.6533 73.8667 93.16 76.0267 93.16 78.64V79.44C93.16 82.48 92.4133 85.0933 90.92 87.28C89.48 89.4667 87.48 91.1467 84.92 92.32C82.4133 93.44 79.56 94 76.36 94H48.84ZM61.96 89.36H75.88C79.88 89.36 82.8933 88.4267 84.92 86.56C87 84.6933 88.04 82.1867 88.04 79.04V78.4C88.04 75.2533 87 72.7467 84.92 70.88C82.8933 69.0133 79.88 68.08 75.88 68.08H61.96V89.36ZM61.96 63.44H76.2C79.88 63.44 82.76 62.5333 84.84 60.72C86.9733 58.8533 88.04 56.4267 88.04 53.44V52.64C88.04 49.6533 86.9733 47.2533 84.84 45.44C82.76 43.5733 79.88 42.64 76.2 42.64H61.96V63.44Z" fill="white"/>
<line x1="1" y1="159" x2="139" y2="159" stroke="white" stroke-width="2" stroke-linecap="round"/>
<path d="M199.82 101V95.24H205.46V64.76H199.82V59H221.12C223.64 59 225.84 59.44 227.72 60.32C229.6 61.16 231.06 62.38 232.1 63.98C233.18 65.54 233.72 67.4 233.72 69.56V70.16C233.72 72.08 233.36 73.66 232.64 74.9C231.92 76.14 231.04 77.1 230 77.78C229 78.46 228.04 78.94 227.12 79.22V80.18C228.04 80.42 229.02 80.9 230.06 81.62C231.14 82.3 232.04 83.26 232.76 84.5C233.52 85.74 233.9 87.36 233.9 89.36V89.96C233.9 92.28 233.36 94.26 232.28 95.9C231.2 97.54 229.7 98.8 227.78 99.68C225.9 100.56 223.72 101 221.24 101H199.82ZM212 95.12H220.46C222.62 95.12 224.32 94.6 225.56 93.56C226.8 92.52 227.42 91.08 227.42 89.24V88.7C227.42 86.86 226.8 85.42 225.56 84.38C224.36 83.34 222.66 82.82 220.46 82.82H212V95.12ZM212 76.88H220.46C222.5 76.88 224.14 76.38 225.38 75.38C226.62 74.34 227.24 72.94 227.24 71.18V70.58C227.24 68.82 226.62 67.44 225.38 66.44C224.18 65.4 222.54 64.88 220.46 64.88H212V76.88ZM255.205 101.84C252.245 101.84 249.605 101.24 247.285 100.04C245.005 98.8 243.205 97.04 241.885 94.76C240.565 92.48 239.905 89.78 239.905 86.66V85.76C239.905 82.64 240.565 79.96 241.885 77.72C243.205 75.44 245.005 73.68 247.285 72.44C249.605 71.2 252.245 70.58 255.205 70.58C258.165 70.58 260.805 71.2 263.125 72.44C265.445 73.68 267.265 75.44 268.585 77.72C269.905 79.96 270.565 82.64 270.565 85.76V86.66C270.565 89.78 269.905 92.48 268.585 94.76C267.265 97.04 265.445 98.8 263.125 100.04C260.805 101.24 258.165 101.84 255.205 101.84ZM255.205 96.32C257.925 96.32 260.125 95.46 261.805 93.74C263.525 91.98 264.385 89.56 264.385 86.48V85.94C264.385 82.86 263.545 80.46 261.865 78.74C260.185 76.98 257.965 76.1 255.205 76.1C252.525 76.1 250.325 76.98 248.605 78.74C246.925 80.46 246.085 82.86 246.085 85.94V86.48C246.085 89.56 246.925 91.98 248.605 93.74C250.325 95.46 252.525 96.32 255.205 96.32ZM289.599 101.54C287.359 101.54 285.359 101.04 283.599 100.04C281.839 99.04 280.459 97.62 279.459 95.78C278.459 93.94 277.959 91.74 277.959 89.18V71.42H284.139V88.76C284.139 91.32 284.779 93.22 286.059 94.46C287.339 95.66 289.119 96.26 291.399 96.26C293.919 96.26 295.939 95.42 297.459 93.74C299.019 92.02 299.799 89.56 299.799 86.36V71.42H305.979V101H299.919V96.56H298.959C298.399 97.76 297.399 98.9 295.959 99.98C294.519 101.02 292.399 101.54 289.599 101.54ZM328.855 101.84C326.015 101.84 323.435 101.24 321.115 100.04C318.835 98.84 317.015 97.1 315.655 94.82C314.335 92.54 313.675 89.8 313.675 86.6V85.82C313.675 82.62 314.335 79.9 315.655 77.66C317.015 75.38 318.835 73.64 321.115 72.44C323.435 71.2 326.015 70.58 328.855 70.58C331.695 70.58 334.115 71.1 336.115 72.14C338.115 73.18 339.715 74.56 340.915 76.28C342.155 78 342.955 79.9 343.315 81.98L337.315 83.24C337.115 81.92 336.695 80.72 336.055 79.64C335.415 78.56 334.515 77.7 333.355 77.06C332.195 76.42 330.735 76.1 328.975 76.1C327.255 76.1 325.695 76.5 324.295 77.3C322.935 78.06 321.855 79.18 321.055 80.66C320.255 82.1 319.855 83.86 319.855 85.94V86.48C319.855 88.56 320.255 90.34 321.055 91.82C321.855 93.3 322.935 94.42 324.295 95.18C325.695 95.94 327.255 96.32 328.975 96.32C331.575 96.32 333.555 95.66 334.915 94.34C336.275 92.98 337.135 91.26 337.495 89.18L343.495 90.56C343.015 92.6 342.155 94.48 340.915 96.2C339.715 97.92 338.115 99.3 336.115 100.34C334.115 101.34 331.695 101.84 328.855 101.84ZM364.183 101.84C361.183 101.84 358.563 101.22 356.323 99.98C354.083 98.7 352.323 96.92 351.043 94.64C349.803 92.32 349.183 89.64 349.183 86.6V85.88C349.183 82.8 349.803 80.12 351.043 77.84C352.283 75.52 354.003 73.74 356.203 72.5C358.443 71.22 361.023 70.58 363.943 70.58C366.783 70.58 369.263 71.22 371.383 72.5C373.543 73.74 375.223 75.48 376.423 77.72C377.623 79.96 378.223 82.58 378.223 85.58V87.92H355.483C355.563 90.52 356.423 92.6 358.063 94.16C359.743 95.68 361.823 96.44 364.303 96.44C366.623 96.44 368.363 95.92 369.523 94.88C370.723 93.84 371.643 92.64 372.283 91.28L377.383 93.92C376.823 95.04 376.003 96.22 374.923 97.46C373.883 98.7 372.503 99.74 370.783 100.58C369.063 101.42 366.863 101.84 364.183 101.84ZM355.543 83.18H371.923C371.763 80.94 370.963 79.2 369.523 77.96C368.083 76.68 366.203 76.04 363.883 76.04C361.563 76.04 359.663 76.68 358.183 77.96C356.743 79.2 355.863 80.94 355.543 83.18ZM385.662 101V59H391.842V82.94H392.802L404.442 71.42H412.662L397.722 85.76L413.142 101H404.982L392.802 88.7H391.842V101H385.662ZM422.428 101.84C421.028 101.84 419.848 101.38 418.888 100.46C417.968 99.54 417.508 98.36 417.508 96.92C417.508 95.48 417.968 94.32 418.888 93.44C419.848 92.52 421.028 92.06 422.428 92.06C423.828 92.06 424.988 92.52 425.908 93.44C426.868 94.36 427.348 95.52 427.348 96.92C427.348 98.36 426.868 99.54 425.908 100.46C424.988 101.38 423.828 101.84 422.428 101.84ZM447.12 101.84C444.68 101.84 442.42 101.24 440.34 100.04C438.26 98.84 436.58 97.12 435.3 94.88C434.06 92.6 433.44 89.86 433.44 86.66V85.76C433.44 82.6 434.06 79.88 435.3 77.6C436.54 75.32 438.2 73.58 440.28 72.38C442.36 71.18 444.64 70.58 447.12 70.58C449.04 70.58 450.64 70.82 451.92 71.3C453.24 71.78 454.32 72.4 455.16 73.16C456 73.88 456.64 74.64 457.08 75.44H458.04V59H464.22V101H458.16V96.8H457.2C456.44 98.08 455.28 99.24 453.72 100.28C452.2 101.32 450 101.84 447.12 101.84ZM448.86 96.44C451.54 96.44 453.74 95.58 455.46 93.86C457.22 92.14 458.1 89.68 458.1 86.48V85.94C458.1 82.78 457.24 80.34 455.52 78.62C453.8 76.9 451.58 76.04 448.86 76.04C446.22 76.04 444.02 76.9 442.26 78.62C440.54 80.34 439.68 82.78 439.68 85.94V86.48C439.68 89.68 440.54 92.14 442.26 93.86C444.02 95.58 446.22 96.44 448.86 96.44ZM486.878 101.84C483.878 101.84 481.258 101.22 479.018 99.98C476.778 98.7 475.018 96.92 473.738 94.64C472.498 92.32 471.878 89.64 471.878 86.6V85.88C471.878 82.8 472.498 80.12 473.738 77.84C474.978 75.52 476.698 73.74 478.898 72.5C481.138 71.22 483.718 70.58 486.638 70.58C489.478 70.58 491.958 71.22 494.078 72.5C496.238 73.74 497.918 75.48 499.118 77.72C500.318 79.96 500.918 82.58 500.918 85.58V87.92H478.178C478.258 90.52 479.118 92.6 480.758 94.16C482.438 95.68 484.518 96.44 486.998 96.44C489.318 96.44 491.058 95.92 492.218 94.88C493.418 93.84 494.338 92.64 494.978 91.28L500.078 93.92C499.518 95.04 498.698 96.22 497.618 97.46C496.578 98.7 495.198 99.74 493.478 100.58C491.758 101.42 489.558 101.84 486.878 101.84ZM478.238 83.18H494.618C494.458 80.94 493.658 79.2 492.218 77.96C490.778 76.68 488.898 76.04 486.578 76.04C484.258 76.04 482.358 76.68 480.878 77.96C479.438 79.2 478.558 80.94 478.238 83.18ZM514.142 101L504.182 71.42H510.722L518.582 96.44H519.542L527.402 71.42H533.942L523.982 101H514.142Z" fill="white"/>
</svg>
