<svg width="697" height="160" viewBox="0 0 697 160" fill="none" xmlns="http://www.w3.org/2000/svg">
<circle cx="70" cy="70" r="69" stroke="#1A1A1A" stroke-width="2"/>
<path d="M49.84 98V93.36H57.84V46.64H49.84V42H77.6C80.8 42 83.6533 42.5867 86.16 43.76C88.6667 44.9333 90.6133 46.5867 92 48.72C93.44 50.8 94.16 53.2267 94.16 56V56.64C94.16 59.2533 93.6533 61.4133 92.64 63.12C91.6267 64.8267 90.4 66.16 88.96 67.12C87.52 68.08 86.1067 68.7733 84.72 69.2V70.16C86.1067 70.48 87.52 71.1467 88.96 72.16C90.4533 73.12 91.68 74.4533 92.64 76.16C93.6533 77.8667 94.16 80.0267 94.16 82.64V83.44C94.16 86.48 93.4133 89.0933 91.92 91.28C90.48 93.4667 88.48 95.1467 85.92 96.32C83.4133 97.44 80.56 98 77.36 98H49.84ZM62.96 93.36H76.88C80.88 93.36 83.8933 92.4267 85.92 90.56C88 88.6933 89.04 86.1867 89.04 83.04V82.4C89.04 79.2533 88 76.7467 85.92 74.88C83.8933 73.0133 80.88 72.08 76.88 72.08H62.96V93.36ZM62.96 67.44H77.2C80.88 67.44 83.76 66.5333 85.84 64.72C87.9733 62.8533 89.04 60.4267 89.04 57.44V56.64C89.04 53.6533 87.9733 51.2533 85.84 49.44C83.76 47.5733 80.88 46.64 77.2 46.64H62.96V67.44Z" fill="#1A1A1A"/>
<line x1="1" y1="159" x2="139" y2="159" stroke="#1A1A1A" stroke-width="2" stroke-linecap="round"/>
<path d="M201.82 101V95.24H207.46V64.76H201.82V59H223.12C225.64 59 227.84 59.44 229.72 60.32C231.6 61.16 233.06 62.38 234.1 63.98C235.18 65.54 235.72 67.4 235.72 69.56V70.16C235.72 72.08 235.36 73.66 234.64 74.9C233.92 76.14 233.04 77.1 232 77.78C231 78.46 230.04 78.94 229.12 79.22V80.18C230.04 80.42 231.02 80.9 232.06 81.62C233.14 82.3 234.04 83.26 234.76 84.5C235.52 85.74 235.9 87.36 235.9 89.36V89.96C235.9 92.28 235.36 94.26 234.28 95.9C233.2 97.54 231.7 98.8 229.78 99.68C227.9 100.56 225.72 101 223.24 101H201.82ZM214 95.12H222.46C224.62 95.12 226.32 94.6 227.56 93.56C228.8 92.52 229.42 91.08 229.42 89.24V88.7C229.42 86.86 228.8 85.42 227.56 84.38C226.36 83.34 224.66 82.82 222.46 82.82H214V95.12ZM214 76.88H222.46C224.5 76.88 226.14 76.38 227.38 75.38C228.62 74.34 229.24 72.94 229.24 71.18V70.58C229.24 68.82 228.62 67.44 227.38 66.44C226.18 65.4 224.54 64.88 222.46 64.88H214V76.88ZM257.205 101.84C254.245 101.84 251.605 101.24 249.285 100.04C247.005 98.8 245.205 97.04 243.885 94.76C242.565 92.48 241.905 89.78 241.905 86.66V85.76C241.905 82.64 242.565 79.96 243.885 77.72C245.205 75.44 247.005 73.68 249.285 72.44C251.605 71.2 254.245 70.58 257.205 70.58C260.165 70.58 262.805 71.2 265.125 72.44C267.445 73.68 269.265 75.44 270.585 77.72C271.905 79.96 272.565 82.64 272.565 85.76V86.66C272.565 89.78 271.905 92.48 270.585 94.76C269.265 97.04 267.445 98.8 265.125 100.04C262.805 101.24 260.165 101.84 257.205 101.84ZM257.205 96.32C259.925 96.32 262.125 95.46 263.805 93.74C265.525 91.98 266.385 89.56 266.385 86.48V85.94C266.385 82.86 265.545 80.46 263.865 78.74C262.185 76.98 259.965 76.1 257.205 76.1C254.525 76.1 252.325 76.98 250.605 78.74C248.925 80.46 248.085 82.86 248.085 85.94V86.48C248.085 89.56 248.925 91.98 250.605 93.74C252.325 95.46 254.525 96.32 257.205 96.32ZM291.599 101.54C289.359 101.54 287.359 101.04 285.599 100.04C283.839 99.04 282.459 97.62 281.459 95.78C280.459 93.94 279.959 91.74 279.959 89.18V71.42H286.139V88.76C286.139 91.32 286.779 93.22 288.059 94.46C289.339 95.66 291.119 96.26 293.399 96.26C295.919 96.26 297.939 95.42 299.459 93.74C301.019 92.02 301.799 89.56 301.799 86.36V71.42H307.979V101H301.919V96.56H300.959C300.399 97.76 299.399 98.9 297.959 99.98C296.519 101.02 294.399 101.54 291.599 101.54ZM330.855 101.84C328.015 101.84 325.435 101.24 323.115 100.04C320.835 98.84 319.015 97.1 317.655 94.82C316.335 92.54 315.675 89.8 315.675 86.6V85.82C315.675 82.62 316.335 79.9 317.655 77.66C319.015 75.38 320.835 73.64 323.115 72.44C325.435 71.2 328.015 70.58 330.855 70.58C333.695 70.58 336.115 71.1 338.115 72.14C340.115 73.18 341.715 74.56 342.915 76.28C344.155 78 344.955 79.9 345.315 81.98L339.315 83.24C339.115 81.92 338.695 80.72 338.055 79.64C337.415 78.56 336.515 77.7 335.355 77.06C334.195 76.42 332.735 76.1 330.975 76.1C329.255 76.1 327.695 76.5 326.295 77.3C324.935 78.06 323.855 79.18 323.055 80.66C322.255 82.1 321.855 83.86 321.855 85.94V86.48C321.855 88.56 322.255 90.34 323.055 91.82C323.855 93.3 324.935 94.42 326.295 95.18C327.695 95.94 329.255 96.32 330.975 96.32C333.575 96.32 335.555 95.66 336.915 94.34C338.275 92.98 339.135 91.26 339.495 89.18L345.495 90.56C345.015 92.6 344.155 94.48 342.915 96.2C341.715 97.92 340.115 99.3 338.115 100.34C336.115 101.34 333.695 101.84 330.855 101.84ZM366.183 101.84C363.183 101.84 360.563 101.22 358.323 99.98C356.083 98.7 354.323 96.92 353.043 94.64C351.803 92.32 351.183 89.64 351.183 86.6V85.88C351.183 82.8 351.803 80.12 353.043 77.84C354.283 75.52 356.003 73.74 358.203 72.5C360.443 71.22 363.023 70.58 365.943 70.58C368.783 70.58 371.263 71.22 373.383 72.5C375.543 73.74 377.223 75.48 378.423 77.72C379.623 79.96 380.223 82.58 380.223 85.58V87.92H357.483C357.563 90.52 358.423 92.6 360.063 94.16C361.743 95.68 363.823 96.44 366.303 96.44C368.623 96.44 370.363 95.92 371.523 94.88C372.723 93.84 373.643 92.64 374.283 91.28L379.383 93.92C378.823 95.04 378.003 96.22 376.923 97.46C375.883 98.7 374.503 99.74 372.783 100.58C371.063 101.42 368.863 101.84 366.183 101.84ZM357.543 83.18H373.923C373.763 80.94 372.963 79.2 371.523 77.96C370.083 76.68 368.203 76.04 365.883 76.04C363.563 76.04 361.663 76.68 360.183 77.96C358.743 79.2 357.863 80.94 357.543 83.18ZM387.662 101V59H393.842V82.94H394.802L406.442 71.42H414.662L399.722 85.76L415.142 101H406.982L394.802 88.7H393.842V101H387.662ZM424.428 101.84C423.028 101.84 421.848 101.38 420.888 100.46C419.968 99.54 419.508 98.36 419.508 96.92C419.508 95.48 419.968 94.32 420.888 93.44C421.848 92.52 423.028 92.06 424.428 92.06C425.828 92.06 426.988 92.52 427.908 93.44C428.868 94.36 429.348 95.52 429.348 96.92C429.348 98.36 428.868 99.54 427.908 100.46C426.988 101.38 425.828 101.84 424.428 101.84ZM449.12 101.84C446.68 101.84 444.42 101.24 442.34 100.04C440.26 98.84 438.58 97.12 437.3 94.88C436.06 92.6 435.44 89.86 435.44 86.66V85.76C435.44 82.6 436.06 79.88 437.3 77.6C438.54 75.32 440.2 73.58 442.28 72.38C444.36 71.18 446.64 70.58 449.12 70.58C451.04 70.58 452.64 70.82 453.92 71.3C455.24 71.78 456.32 72.4 457.16 73.16C458 73.88 458.64 74.64 459.08 75.44H460.04V59H466.22V101H460.16V96.8H459.2C458.44 98.08 457.28 99.24 455.72 100.28C454.2 101.32 452 101.84 449.12 101.84ZM450.86 96.44C453.54 96.44 455.74 95.58 457.46 93.86C459.22 92.14 460.1 89.68 460.1 86.48V85.94C460.1 82.78 459.24 80.34 457.52 78.62C455.8 76.9 453.58 76.04 450.86 76.04C448.22 76.04 446.02 76.9 444.26 78.62C442.54 80.34 441.68 82.78 441.68 85.94V86.48C441.68 89.68 442.54 92.14 444.26 93.86C446.02 95.58 448.22 96.44 450.86 96.44ZM488.878 101.84C485.878 101.84 483.258 101.22 481.018 99.98C478.778 98.7 477.018 96.92 475.738 94.64C474.498 92.32 473.878 89.64 473.878 86.6V85.88C473.878 82.8 474.498 80.12 475.738 77.84C476.978 75.52 478.698 73.74 480.898 72.5C483.138 71.22 485.718 70.58 488.638 70.58C491.478 70.58 493.958 71.22 496.078 72.5C498.238 73.74 499.918 75.48 501.118 77.72C502.318 79.96 502.918 82.58 502.918 85.58V87.92H480.178C480.258 90.52 481.118 92.6 482.758 94.16C484.438 95.68 486.518 96.44 488.998 96.44C491.318 96.44 493.058 95.92 494.218 94.88C495.418 93.84 496.338 92.64 496.978 91.28L502.078 93.92C501.518 95.04 500.698 96.22 499.618 97.46C498.578 98.7 497.198 99.74 495.478 100.58C493.758 101.42 491.558 101.84 488.878 101.84ZM480.238 83.18H496.618C496.458 80.94 495.658 79.2 494.218 77.96C492.778 76.68 490.898 76.04 488.578 76.04C486.258 76.04 484.358 76.68 482.878 77.96C481.438 79.2 480.558 80.94 480.238 83.18ZM516.142 101L506.182 71.42H512.722L520.582 96.44H521.542L529.402 71.42H535.942L525.982 101H516.142Z" fill="#1A1A1A"/>
</svg>
