<svg width="140" height="160" viewBox="0 0 140 160" fill="none" xmlns="http://www.w3.org/2000/svg">
<circle cx="70" cy="70" r="69" stroke="white" stroke-width="2"/>
<path d="M48.84 94V89.36H56.84V42.64H48.84V38H76.6C79.8 38 82.6533 38.5867 85.16 39.76C87.6667 40.9333 89.6133 42.5867 91 44.72C92.44 46.8 93.16 49.2267 93.16 52V52.64C93.16 55.2533 92.6533 57.4133 91.64 59.12C90.6267 60.8267 89.4 62.16 87.96 63.12C86.52 64.08 85.1067 64.7733 83.72 65.2V66.16C85.1067 66.48 86.52 67.1467 87.96 68.16C89.4533 69.12 90.68 70.4533 91.64 72.16C92.6533 73.8667 93.16 76.0267 93.16 78.64V79.44C93.16 82.48 92.4133 85.0933 90.92 87.28C89.48 89.4667 87.48 91.1467 84.92 92.32C82.4133 93.44 79.56 94 76.36 94H48.84ZM61.96 89.36H75.88C79.88 89.36 82.8933 88.4267 84.92 86.56C87 84.6933 88.04 82.1867 88.04 79.04V78.4C88.04 75.2533 87 72.7467 84.92 70.88C82.8933 69.0133 79.88 68.08 75.88 68.08H61.96V89.36ZM61.96 63.44H76.2C79.88 63.44 82.76 62.5333 84.84 60.72C86.9733 58.8533 88.04 56.4267 88.04 53.44V52.64C88.04 49.6533 86.9733 47.2533 84.84 45.44C82.76 43.5733 79.88 42.64 76.2 42.64H61.96V63.44Z" fill="white"/>
<line x1="1" y1="159" x2="139" y2="159" stroke="white" stroke-width="2" stroke-linecap="round"/>
</svg>
