<svg width="140" height="160" viewBox="0 0 140 160" fill="none" xmlns="http://www.w3.org/2000/svg">
<circle cx="70" cy="70" r="69" stroke="#1A1A1A" stroke-width="2"/>
<path d="M49.84 98V93.36H57.84V46.64H49.84V42H77.6C80.8 42 83.6533 42.5867 86.16 43.76C88.6667 44.9333 90.6133 46.5867 92 48.72C93.44 50.8 94.16 53.2267 94.16 56V56.64C94.16 59.2533 93.6533 61.4133 92.64 63.12C91.6267 64.8267 90.4 66.16 88.96 67.12C87.52 68.08 86.1067 68.7733 84.72 69.2V70.16C86.1067 70.48 87.52 71.1467 88.96 72.16C90.4533 73.12 91.68 74.4533 92.64 76.16C93.6533 77.8667 94.16 80.0267 94.16 82.64V83.44C94.16 86.48 93.4133 89.0933 91.92 91.28C90.48 93.4667 88.48 95.1467 85.92 96.32C83.4133 97.44 80.56 98 77.36 98H49.84ZM62.96 93.36H76.88C80.88 93.36 83.8933 92.4267 85.92 90.56C88 88.6933 89.04 86.1867 89.04 83.04V82.4C89.04 79.2533 88 76.7467 85.92 74.88C83.8933 73.0133 80.88 72.08 76.88 72.08H62.96V93.36ZM62.96 67.44H77.2C80.88 67.44 83.76 66.5333 85.84 64.72C87.9733 62.8533 89.04 60.4267 89.04 57.44V56.64C89.04 53.6533 87.9733 51.2533 85.84 49.44C83.76 47.5733 80.88 46.64 77.2 46.64H62.96V67.44Z" fill="#1A1A1A"/>
<line x1="1" y1="159" x2="139" y2="159" stroke="#1A1A1A" stroke-width="2" stroke-linecap="round"/>
</svg>
