<svg width="24" height="24" viewBox="0 0 24 24" fill="none" xmlns="http://www.w3.org/2000/svg">
<path d="M2.85 6.30002C2.85 6.00002 2.7 5.70002 2.55 5.55002L0.3 2.85002V2.40002H7.2L12.6 14.25L17.4 2.40002H24V2.85002L22.05 4.65002C21.9 4.80002 21.75 4.95002 21.9 5.25002V18.75C21.9 18.9 21.9 19.2 22.05 19.35L23.85 21.15V21.6H14.4V21.15L16.35 19.2C16.5 19.05 16.5 18.9 16.5 18.6V7.65002L11.1 21.3H10.5L4.2 7.65002V16.8C4.2 17.25 4.35 17.55 4.5 17.85L7.05 20.85V21.3H0V20.85L2.55 17.85C2.85 17.55 3 17.25 2.85 16.8V6.30002Z" fill="black"/>
</svg>
