<svg width="30" height="30" viewBox="0 0 30 30" fill="none" xmlns="http://www.w3.org/2000/svg">
<path d="M20.4683 4.06212C21.9175 4.06645 23.3061 4.64405 24.3308 5.66878C25.3555 6.6935 25.9331 8.08209 25.9374 9.53126V20.4684C25.9331 21.9175 25.3555 23.3061 24.3308 24.3309C23.3061 25.3556 21.9175 25.9332 20.4683 25.9375H9.5312C8.08202 25.9332 6.69344 25.3556 5.66871 24.3309C4.64399 23.3061 4.06639 21.9175 4.06206 20.4684V9.53126C4.06639 8.08209 4.64399 6.6935 5.66871 5.66878C6.69344 4.64405 8.08202 4.06645 9.5312 4.06212H20.4683ZM20.4683 1.87482H9.5312C5.32007 1.87482 1.87476 5.32013 1.87476 9.53126V20.4684C1.87476 24.6795 5.32007 28.1248 9.5312 28.1248H20.4683C24.6794 28.1248 28.1247 24.6795 28.1247 20.4684V9.53126C28.1247 5.32013 24.6794 1.87482 20.4683 1.87482Z" fill="black"/>
<path d="M22.1091 9.53101C21.7846 9.53101 21.4674 9.43479 21.1977 9.25451C20.9279 9.07424 20.7176 8.81801 20.5934 8.51822C20.4692 8.21844 20.4367 7.88856 20.5 7.57031C20.5633 7.25206 20.7196 6.95973 20.949 6.73028C21.1785 6.50084 21.4708 6.34458 21.7891 6.28128C22.1073 6.21798 22.4372 6.25047 22.737 6.37464C23.0368 6.49882 23.293 6.7091 23.4733 6.9789C23.6535 7.2487 23.7498 7.5659 23.7498 7.89038C23.7502 8.10596 23.7081 8.31951 23.6258 8.51877C23.5435 8.71803 23.4227 8.89907 23.2703 9.05151C23.1178 9.20395 22.9368 9.32478 22.7375 9.40706C22.5383 9.48935 22.3247 9.53147 22.1091 9.53101Z" fill="black"/>
<path d="M14.9998 10.6239C15.8651 10.6239 16.711 10.8805 17.4305 11.3613C18.15 11.842 18.7108 12.5253 19.0419 13.3248C19.3731 14.1243 19.4597 15.004 19.2909 15.8527C19.1221 16.7014 18.7054 17.481 18.0935 18.0928C17.4816 18.7047 16.702 19.1214 15.8533 19.2902C15.0046 19.4591 14.1249 19.3724 13.3254 19.0413C12.526 18.7101 11.8427 18.1493 11.3619 17.4298C10.8812 16.7103 10.6246 15.8644 10.6246 14.9991C10.6258 13.8391 11.0872 12.727 11.9074 11.9068C12.7276 11.0865 13.8398 10.6252 14.9998 10.6239ZM14.9998 8.43661C13.7018 8.43661 12.433 8.8215 11.3538 9.5426C10.2746 10.2637 9.4335 11.2886 8.9368 12.4878C8.4401 13.6869 8.31014 15.0064 8.56336 16.2794C8.81657 17.5524 9.44159 18.7217 10.3594 19.6395C11.2772 20.5573 12.4465 21.1823 13.7195 21.4355C14.9925 21.6887 16.312 21.5588 17.5111 21.0621C18.7103 20.5654 19.7352 19.7242 20.4563 18.645C21.1774 17.5658 21.5623 16.2971 21.5623 14.9991C21.5623 13.2586 20.8709 11.5894 19.6401 10.3587C18.4094 9.12802 16.7402 8.43661 14.9998 8.43661Z" fill="black"/>
</svg>
