<svg width="140" height="160" viewBox="0 0 140 160" fill="none" xmlns="http://www.w3.org/2000/svg">
<circle cx="70" cy="70" r="69.25" stroke="#1A1A1A" stroke-width="1.5"/>
<path d="M89.08 79.88C89.08 82.92 88.4933 85.4267 87.32 87.4C86.2 89.32 84.7333 90.84 82.92 91.96C81.16 93.08 79.1867 93.88 77 94.36C74.8667 94.7867 72.8133 95 70.84 95H53.48V38.36H68.92C71.0533 38.36 73.16 38.5733 75.24 39C77.3733 39.4267 79.2667 40.1467 80.92 41.16C82.5733 42.1733 83.9067 43.5333 84.92 45.24C85.9333 46.9467 86.44 49.1067 86.44 51.72C86.44 53.7467 86.12 55.5067 85.48 57C84.84 58.4933 83.96 59.7733 82.84 60.84C81.7733 61.9067 80.5467 62.7867 79.16 63.48C77.7733 64.12 76.36 64.6 74.92 64.92V65.08C76.36 65.24 77.9067 65.64 79.56 66.28C81.2133 66.8667 82.7333 67.7467 84.12 68.92C85.56 70.0933 86.7333 71.5867 87.64 73.4C88.6 75.2133 89.08 77.3733 89.08 79.88ZM84.68 51.96C84.68 49.6667 84.2267 47.7467 83.32 46.2C82.4133 44.6533 81.2133 43.4267 79.72 42.52C78.2267 41.6133 76.4933 40.9733 74.52 40.6C72.6 40.1733 70.5733 39.96 68.44 39.96H55.24V64.36H68.84C70.76 64.36 72.6533 64.12 74.52 63.64C76.44 63.16 78.1467 62.44 79.64 61.48C81.1333 60.4667 82.3333 59.1867 83.24 57.64C84.2 56.04 84.68 54.1467 84.68 51.96ZM87.32 80.12C87.32 77.56 86.7867 75.3733 85.72 73.56C84.7067 71.7467 83.4 70.28 81.8 69.16C80.2 68.04 78.44 67.24 76.52 66.76C74.6 66.2267 72.7333 65.96 70.92 65.96H55.24V93.4H70.04C72.4933 93.4 74.7867 93.16 76.92 92.68C79.0533 92.1467 80.8667 91.3467 82.36 90.28C83.9067 89.2133 85.1067 87.8533 85.96 86.2C86.8667 84.4933 87.32 82.4667 87.32 80.12Z" fill="#1A1A1A"/>
<line x1="0.75" y1="159.25" x2="139.25" y2="159.25" stroke="#1A1A1A" stroke-width="1.5" stroke-linecap="round"/>
</svg>
