<svg width="28" height="28" viewBox="0 0 28 28" fill="none" xmlns="http://www.w3.org/2000/svg">
<g clip-path="url(#clip0)">
<path d="M12.546 24.4057C9.70559 23.9049 7.18047 22.2962 5.52615 19.9336C3.87182 17.571 3.2238 14.6479 3.72464 11.8075C4.48978 7.46822 7.66859 4.01717 11.8245 3.01787C11.971 2.98257 12.1247 2.99221 12.2656 3.04553C12.4065 3.09885 12.5281 3.19339 12.6145 3.31681C12.701 3.44024 12.7482 3.58683 12.7501 3.7375C12.752 3.88816 12.7085 4.0359 12.6252 4.16148C12.0027 5.10077 11.5388 6.36267 11.2837 7.80942C10.3861 12.9003 13.7975 17.7723 18.8884 18.6699C20.3351 18.925 21.6795 18.9208 22.7751 18.657C22.9216 18.6217 23.0753 18.6314 23.2162 18.6847C23.3572 18.738 23.4788 18.8325 23.5652 18.956C23.6516 19.0794 23.6989 19.226 23.7008 19.3766C23.7027 19.5273 23.6592 19.6751 23.5759 19.8006C21.2155 23.3641 16.8853 25.1709 12.546 24.4057Z" fill="black"/>
</g>
<defs>
<clipPath id="clip0">
<rect width="24" height="24" fill="white" transform="translate(4.26611 0.0985107) rotate(10)"/>
</clipPath>
</defs>
</svg>
