<svg width="695" height="160" viewBox="0 0 695 160" fill="none" xmlns="http://www.w3.org/2000/svg">
<circle cx="70" cy="70" r="69.25" stroke="white" stroke-width="1.5"/>
<path d="M89.08 79.88C89.08 82.92 88.4933 85.4267 87.32 87.4C86.2 89.32 84.7333 90.84 82.92 91.96C81.16 93.08 79.1867 93.88 77 94.36C74.8667 94.7867 72.8133 95 70.84 95H53.48V38.36H68.92C71.0533 38.36 73.16 38.5733 75.24 39C77.3733 39.4267 79.2667 40.1467 80.92 41.16C82.5733 42.1733 83.9067 43.5333 84.92 45.24C85.9333 46.9467 86.44 49.1067 86.44 51.72C86.44 53.7467 86.12 55.5067 85.48 57C84.84 58.4933 83.96 59.7733 82.84 60.84C81.7733 61.9067 80.5467 62.7867 79.16 63.48C77.7733 64.12 76.36 64.6 74.92 64.92V65.08C76.36 65.24 77.9067 65.64 79.56 66.28C81.2133 66.8667 82.7333 67.7467 84.12 68.92C85.56 70.0933 86.7333 71.5867 87.64 73.4C88.6 75.2133 89.08 77.3733 89.08 79.88ZM84.68 51.96C84.68 49.6667 84.2267 47.7467 83.32 46.2C82.4133 44.6533 81.2133 43.4267 79.72 42.52C78.2267 41.6133 76.4933 40.9733 74.52 40.6C72.6 40.1733 70.5733 39.96 68.44 39.96H55.24V64.36H68.84C70.76 64.36 72.6533 64.12 74.52 63.64C76.44 63.16 78.1467 62.44 79.64 61.48C81.1333 60.4667 82.3333 59.1867 83.24 57.64C84.2 56.04 84.68 54.1467 84.68 51.96ZM87.32 80.12C87.32 77.56 86.7867 75.3733 85.72 73.56C84.7067 71.7467 83.4 70.28 81.8 69.16C80.2 68.04 78.44 67.24 76.52 66.76C74.6 66.2267 72.7333 65.96 70.92 65.96H55.24V93.4H70.04C72.4933 93.4 74.7867 93.16 76.92 92.68C79.0533 92.1467 80.8667 91.3467 82.36 90.28C83.9067 89.2133 85.1067 87.8533 85.96 86.2C86.8667 84.4933 87.32 82.4667 87.32 80.12Z" fill="white"/>
<line x1="0.75" y1="159.25" x2="139.25" y2="159.25" stroke="white" stroke-width="1.5" stroke-linecap="round"/>
<path d="M226.64 93.48H209.18L206.18 102H199.04L213.98 60.24H221.9L236.84 102H229.64L226.64 93.48ZM224.72 87.9L217.94 68.52L211.1 87.9H224.72ZM241.056 85.32C241.056 82 241.736 79.06 243.096 76.5C244.496 73.94 246.376 71.96 248.736 70.56C251.136 69.12 253.796 68.4 256.716 68.4C258.876 68.4 260.996 68.88 263.076 69.84C265.196 70.76 266.876 72 268.116 73.56V57.6H275.016V102H268.116V97.02C266.996 98.62 265.436 99.94 263.436 100.98C261.476 102.02 259.216 102.54 256.656 102.54C253.776 102.54 251.136 101.82 248.736 100.38C246.376 98.9 244.496 96.86 243.096 94.26C241.736 91.62 241.056 88.64 241.056 85.32ZM268.116 85.44C268.116 83.16 267.636 81.18 266.676 79.5C265.756 77.82 264.536 76.54 263.016 75.66C261.496 74.78 259.856 74.34 258.096 74.34C256.336 74.34 254.696 74.78 253.176 75.66C251.656 76.5 250.416 77.76 249.456 79.44C248.536 81.08 248.076 83.04 248.076 85.32C248.076 87.6 248.536 89.6 249.456 91.32C250.416 93.04 251.656 94.36 253.176 95.28C254.736 96.16 256.376 96.6 258.096 96.6C259.856 96.6 261.496 96.16 263.016 95.28C264.536 94.4 265.756 93.12 266.676 91.44C267.636 89.72 268.116 87.72 268.116 85.44ZM281.72 85.32C281.72 82 282.4 79.06 283.76 76.5C285.16 73.94 287.04 71.96 289.4 70.56C291.8 69.12 294.44 68.4 297.32 68.4C299.92 68.4 302.18 68.92 304.1 69.96C306.06 70.96 307.62 72.22 308.78 73.74V68.94H315.68V102H308.78V97.08C307.62 98.64 306.04 99.94 304.04 100.98C302.04 102.02 299.76 102.54 297.2 102.54C294.36 102.54 291.76 101.82 289.4 100.38C287.04 98.9 285.16 96.86 283.76 94.26C282.4 91.62 281.72 88.64 281.72 85.32ZM308.78 85.44C308.78 83.16 308.3 81.18 307.34 79.5C306.42 77.82 305.2 76.54 303.68 75.66C302.16 74.78 300.52 74.34 298.76 74.34C297 74.34 295.36 74.78 293.84 75.66C292.32 76.5 291.08 77.76 290.12 79.44C289.2 81.08 288.74 83.04 288.74 85.32C288.74 87.6 289.2 89.6 290.12 91.32C291.08 93.04 292.32 94.36 293.84 95.28C295.4 96.16 297.04 96.6 298.76 96.6C300.52 96.6 302.16 96.16 303.68 95.28C305.2 94.4 306.42 93.12 307.34 91.44C308.3 89.72 308.78 87.72 308.78 85.44ZM364.684 68.4C367.284 68.4 369.604 68.94 371.644 70.02C373.724 71.1 375.344 72.7 376.504 74.82C377.704 76.94 378.304 79.5 378.304 82.5V102H371.524V83.52C371.524 80.56 370.784 78.3 369.304 76.74C367.824 75.14 365.804 74.34 363.244 74.34C360.684 74.34 358.644 75.14 357.124 76.74C355.644 78.3 354.904 80.56 354.904 83.52V102H348.124V83.52C348.124 80.56 347.384 78.3 345.904 76.74C344.424 75.14 342.404 74.34 339.844 74.34C337.284 74.34 335.244 75.14 333.724 76.74C332.244 78.3 331.504 80.56 331.504 83.52V102H324.664V68.94H331.504V72.72C332.624 71.36 334.044 70.3 335.764 69.54C337.484 68.78 339.324 68.4 341.284 68.4C343.924 68.4 346.284 68.96 348.364 70.08C350.444 71.2 352.044 72.82 353.164 74.94C354.164 72.94 355.724 71.36 357.844 70.2C359.964 69 362.244 68.4 364.684 68.4ZM424.914 80.58C427.154 80.98 429.054 82.16 430.614 84.12C432.174 86.08 432.954 88.3 432.954 90.78C432.954 92.9 432.394 94.82 431.274 96.54C430.194 98.22 428.614 99.56 426.534 100.56C424.454 101.52 422.034 102 419.274 102H402.594V60.3H418.494C421.334 60.3 423.774 60.78 425.814 61.74C427.854 62.7 429.394 64 430.434 65.64C431.474 67.24 431.994 69.04 431.994 71.04C431.994 73.44 431.354 75.44 430.074 77.04C428.794 78.64 427.074 79.82 424.914 80.58ZM409.434 77.82H417.894C420.134 77.82 421.874 77.32 423.114 76.32C424.394 75.28 425.034 73.8 425.034 71.88C425.034 70 424.394 68.54 423.114 67.5C421.874 66.42 420.134 65.88 417.894 65.88H409.434V77.82ZM418.674 96.42C420.994 96.42 422.814 95.86 424.134 94.74C425.454 93.62 426.114 92.06 426.114 90.06C426.114 88.02 425.414 86.4 424.014 85.2C422.614 84 420.754 83.4 418.434 83.4H409.434V96.42H418.674ZM454.727 102.54C451.607 102.54 448.787 101.84 446.267 100.44C443.747 99 441.767 97 440.327 94.44C438.887 91.84 438.167 88.84 438.167 85.44C438.167 82.08 438.907 79.1 440.387 76.5C441.867 73.9 443.887 71.9 446.447 70.5C449.007 69.1 451.867 68.4 455.027 68.4C458.187 68.4 461.047 69.1 463.607 70.5C466.167 71.9 468.187 73.9 469.667 76.5C471.147 79.1 471.887 82.08 471.887 85.44C471.887 88.8 471.127 91.78 469.607 94.38C468.087 96.98 466.007 99 463.367 100.44C460.767 101.84 457.887 102.54 454.727 102.54ZM454.727 96.6C456.487 96.6 458.127 96.18 459.647 95.34C461.207 94.5 462.467 93.24 463.427 91.56C464.387 89.88 464.867 87.84 464.867 85.44C464.867 83.04 464.407 81.02 463.487 79.38C462.567 77.7 461.347 76.44 459.827 75.6C458.307 74.76 456.667 74.34 454.907 74.34C453.147 74.34 451.507 74.76 449.987 75.6C448.507 76.44 447.327 77.7 446.447 79.38C445.567 81.02 445.127 83.04 445.127 85.44C445.127 89 446.027 91.76 447.827 93.72C449.667 95.64 451.967 96.6 454.727 96.6ZM508.588 68.94V102H501.748V98.1C500.668 99.46 499.248 100.54 497.488 101.34C495.768 102.1 493.928 102.48 491.968 102.48C489.368 102.48 487.028 101.94 484.948 100.86C482.908 99.78 481.288 98.18 480.088 96.06C478.928 93.94 478.348 91.38 478.348 88.38V68.94H485.128V87.36C485.128 90.32 485.868 92.6 487.348 94.2C488.828 95.76 490.848 96.54 493.408 96.54C495.968 96.54 497.988 95.76 499.468 94.2C500.988 92.6 501.748 90.32 501.748 87.36V68.94H508.588ZM515.333 85.44C515.333 82.04 516.013 79.06 517.373 76.5C518.773 73.9 520.693 71.9 523.133 70.5C525.573 69.1 528.373 68.4 531.533 68.4C535.533 68.4 538.833 69.36 541.433 71.28C544.073 73.16 545.853 75.86 546.773 79.38H539.393C538.793 77.74 537.833 76.46 536.513 75.54C535.193 74.62 533.533 74.16 531.533 74.16C528.733 74.16 526.493 75.16 524.813 77.16C523.173 79.12 522.353 81.88 522.353 85.44C522.353 89 523.173 91.78 524.813 93.78C526.493 95.78 528.733 96.78 531.533 96.78C535.493 96.78 538.113 95.04 539.393 91.56H546.773C545.813 94.92 544.013 97.6 541.373 99.6C538.733 101.56 535.453 102.54 531.533 102.54C528.373 102.54 525.573 101.84 523.133 100.44C520.693 99 518.773 97 517.373 94.44C516.013 91.84 515.333 88.84 515.333 85.44ZM583.89 84.66C583.89 85.9 583.81 87.02 583.65 88.02H558.39C558.59 90.66 559.57 92.78 561.33 94.38C563.09 95.98 565.25 96.78 567.81 96.78C571.49 96.78 574.09 95.24 575.61 92.16H582.99C581.99 95.2 580.17 97.7 577.53 99.66C574.93 101.58 571.69 102.54 567.81 102.54C564.65 102.54 561.81 101.84 559.29 100.44C556.81 99 554.85 97 553.41 94.44C552.01 91.84 551.31 88.84 551.31 85.44C551.31 82.04 551.99 79.06 553.35 76.5C554.75 73.9 556.69 71.9 559.17 70.5C561.69 69.1 564.57 68.4 567.81 68.4C570.93 68.4 573.71 69.08 576.15 70.44C578.59 71.8 580.49 73.72 581.85 76.2C583.21 78.64 583.89 81.46 583.89 84.66ZM576.75 82.5C576.71 79.98 575.81 77.96 574.05 76.44C572.29 74.92 570.11 74.16 567.51 74.16C565.15 74.16 563.13 74.92 561.45 76.44C559.77 77.92 558.77 79.94 558.45 82.5H576.75ZM603.701 85.5L618.941 102H609.701L597.461 87.78V102H590.621V57.6H597.461V83.4L609.461 68.94H618.941L603.701 85.5Z" fill="white"/>
</svg>
