<svg width="49" height="42" viewBox="0 0 49 42" fill="none" xmlns="http://www.w3.org/2000/svg">
<rect width="49" height="42" rx="3" fill="#D3D3D3"/>
<g clip-path="url(#clip0)">
<path d="M23.546 31.4057C20.7056 30.9049 18.1805 29.2962 16.5261 26.9336C14.8718 24.571 14.2238 21.6479 14.7246 18.8075C15.4898 14.4682 18.6686 11.0172 22.8245 10.0179C22.971 9.98257 23.1247 9.99221 23.2656 10.0455C23.4065 10.0989 23.5281 10.1934 23.6145 10.3168C23.701 10.4402 23.7482 10.5868 23.7501 10.7375C23.752 10.8882 23.7085 11.0359 23.6252 11.1615C23.0027 12.1008 22.5388 13.3627 22.2837 14.8094C21.3861 19.9003 24.7975 24.7723 29.8884 25.6699C31.3351 25.925 32.6795 25.9208 33.7751 25.657C33.9216 25.6217 34.0753 25.6314 34.2162 25.6847C34.3572 25.738 34.4788 25.8325 34.5652 25.956C34.6516 26.0794 34.6989 26.226 34.7008 26.3766C34.7027 26.5273 34.6592 26.6751 34.5759 26.8006C32.2155 30.3641 27.8853 32.1709 23.546 31.4057Z" fill="black"/>
</g>
<defs>
<clipPath id="clip0">
<rect width="24" height="24" fill="white" transform="translate(15.2661 7.09851) rotate(10)"/>
</clipPath>
</defs>
</svg>
